<svg width="1920" height="1080" viewBox="0 0 1920 1080" xmlns="http://www.w3.org/2000/svg"><rect width="1920" height="1080" fill="#fafafa"/><path d="M 0,1080 C 0,1080 0,270 0,270 C 145.03349282296648,250.95693779904306 290.06698564593296,231.91387559808612 428,245 C 565.933014354067,258.0861244019139 696.7655502392345,303.30143540669854 827,330 C 957.2344497607655,356.69856459330146 1086.8708133971293,364.8803827751196 1224,357 C 1361.1291866028707,349.1196172248804 1505.7511961722487,325.177033492823 1623,308 C 1740.2488038277513,290.822966507177 1830.1244019138758,280.4114832535885 1920,270 C 1920,270 1920,1080 1920,1080 Z" fill="#c9c9c9" opacity="0.15"/><path d="M 0,1080 C 0,1080 0,540 0,540 C 152.69856459330146,542.6507177033493 305.3971291866029,545.3014354066986 438,521 C 570.6028708133971,496.69856459330146 683.1100478468899,445.444976076555 830,460 C 976.8899521531101,474.555023923445 1158.1626794258375,554.9186602870813 1291,599 C 1423.8373205741625,643.0813397129187 1508.2392344497607,650.8803827751196 1605,635 C 1701.7607655502393,619.1196172248804 1810.8803827751196,579.5598086124402 1920,540 C 1920,540 1920,1080 1920,1080 Z" fill="#c9c9c9" opacity="0.3"/><path d="M 0,1080 C 0,1080 0,810 0,810 C 177.93301435406698,804.4976076555024 355.86602870813397,798.9952153110047 446,808 C 536.133971291866,817.0047846889953 538.468899521531,840.5167464114834 628,833 C 717.531100478469,825.4832535885166 894.2583732057417,786.9377990430623 1034,772 C 1173.7416267942583,757.0622009569377 1276.4976076555024,765.7320574162678 1418,776 C 1559.5023923444976,786.2679425837322 1739.751196172249,798.1339712918661 1920,810 C 1920,810 1920,1080 1920,1080 Z" fill="#c9c9c9" opacity="0.44999999999999996"/></svg>